<svg width="463" height="461" viewBox="0 0 463 461" fill="none" xmlns="http://www.w3.org/2000/svg">
<mask id="path-1-outside-1_1_29" maskUnits="userSpaceOnUse" x="85.2493" y="123.59" width="70.3407" height="63.8016" fill="black">
<rect fill="white" x="85.2493" y="123.59" width="70.3407" height="63.8016"/>
<path d="M143.135 172.1C145.336 169.085 146.277 165.942 145.958 162.671C145.377 158.945 143.342 155.808 139.853 153.261L105.221 127.976L100.032 135.083L134.663 160.368C136.214 161.5 137.055 162.61 137.186 163.696C137.294 164.633 136.908 165.705 136.028 166.911C135.116 168.16 134.197 168.876 133.271 169.059C132.271 169.253 130.974 168.768 129.38 167.605L123.759 163.5L118.57 170.608L124.191 174.712C127.766 177.322 131.374 178.305 135.014 177.661C138.163 177.055 140.871 175.202 143.135 172.1Z"/>
</mask>
<path d="M143.135 172.1C145.336 169.085 146.277 165.942 145.958 162.671C145.377 158.945 143.342 155.808 139.853 153.261L105.221 127.976L100.032 135.083L134.663 160.368C136.214 161.5 137.055 162.61 137.186 163.696C137.294 164.633 136.908 165.705 136.028 166.911C135.116 168.16 134.197 168.876 133.271 169.059C132.271 169.253 130.974 168.768 129.38 167.605L123.759 163.5L118.57 170.608L124.191 174.712C127.766 177.322 131.374 178.305 135.014 177.661C138.163 177.055 140.871 175.202 143.135 172.1Z" fill="#DF80AC"/>
<path d="M145.958 162.671L148.944 162.38L148.935 162.294L148.922 162.209L145.958 162.671ZM105.221 127.976L106.99 125.553L104.567 123.784L102.798 126.207L105.221 127.976ZM100.032 135.083L97.6088 133.314L95.8398 135.737L98.2627 137.506L100.032 135.083ZM137.186 163.696L140.167 163.352L140.166 163.344L140.165 163.336L137.186 163.696ZM133.271 169.059L133.843 172.004L133.851 172.002L133.271 169.059ZM123.759 163.5L125.528 161.078L123.105 159.309L121.336 161.731L123.759 163.5ZM118.57 170.608L116.147 168.839L114.378 171.262L116.801 173.031L118.57 170.608ZM135.014 177.661L135.536 180.615L135.558 180.611L135.58 180.607L135.014 177.661ZM145.558 173.869C148.13 170.346 149.344 166.483 148.944 162.38L142.972 162.963C143.21 165.401 142.542 167.824 140.712 170.331L145.558 173.869ZM148.922 162.209C148.2 157.58 145.652 153.78 141.622 150.838L138.084 155.684C141.032 157.836 142.553 160.31 142.994 163.134L148.922 162.209ZM141.622 150.838L106.99 125.553L103.452 130.399L138.084 155.684L141.622 150.838ZM102.798 126.207L97.6088 133.314L102.455 136.852L107.644 129.745L102.798 126.207ZM98.2627 137.506L132.894 162.791L136.432 157.945L101.801 132.66L98.2627 137.506ZM132.894 162.791C133.516 163.245 133.875 163.609 134.067 163.862C134.252 164.106 134.221 164.166 134.208 164.056L140.165 163.336C139.88 160.982 138.182 159.222 136.432 157.945L132.894 162.791ZM134.206 164.04C134.197 163.963 134.224 163.996 134.155 164.186C134.084 164.385 133.926 164.702 133.605 165.142L138.451 168.68C139.528 167.204 140.399 165.372 140.167 163.352L134.206 164.04ZM133.605 165.142C133.263 165.61 132.992 165.877 132.811 166.018C132.636 166.154 132.598 166.134 132.691 166.115L133.851 172.002C135.866 171.605 137.361 170.172 138.451 168.68L133.605 165.142ZM132.699 166.114C132.903 166.074 132.908 166.147 132.598 166.031C132.289 165.915 131.81 165.665 131.149 165.182L127.611 170.028C129.316 171.272 131.527 172.453 133.843 172.004L132.699 166.114ZM131.149 165.182L125.528 161.078L121.99 165.923L127.611 170.028L131.149 165.182ZM121.336 161.731L116.147 168.839L120.993 172.377L126.182 165.269L121.336 161.731ZM116.801 173.031L122.422 177.135L125.96 172.289L120.339 168.185L116.801 173.031ZM122.422 177.135C126.516 180.124 130.935 181.429 135.536 180.615L134.491 174.707C131.812 175.181 129.016 174.52 125.96 172.289L122.422 177.135ZM135.58 180.607C139.618 179.83 142.939 177.456 145.558 173.869L140.712 170.331C138.802 172.948 136.709 174.28 134.447 174.715L135.58 180.607Z" fill="black" mask="url(#path-1-outside-1_1_29)"/>
<mask id="path-3-outside-2_1_29" maskUnits="userSpaceOnUse" x="119.744" y="87.4732" width="64.4159" height="71.9653" fill="black">
<rect fill="white" x="119.744" y="87.4732" width="64.4159" height="71.9653"/>
<path d="M168.079 147.125C171.234 144.936 173.153 142.274 173.834 139.14C174.566 135.517 173.671 131.886 171.147 128.249L154.184 103.797C151.661 100.16 148.574 98.0496 144.924 97.4661C141.749 97.0071 138.585 97.8719 135.43 100.061C132.274 102.25 130.356 104.911 129.674 108.045C128.942 111.669 129.838 115.299 132.361 118.936L149.324 143.388C151.848 147.025 154.934 149.136 158.585 149.719C161.759 150.178 164.924 149.313 168.079 147.125ZM140.446 107.291C141.716 106.41 142.797 106.049 143.688 106.21C144.74 106.324 145.829 107.192 146.954 108.813L163.917 133.265C165.042 134.887 165.473 136.21 165.211 137.236C165.05 138.126 164.334 139.012 163.063 139.894C161.836 140.745 160.755 141.106 159.821 140.975C158.738 140.817 157.649 139.95 156.555 138.372L139.592 113.92C138.497 112.343 138.066 111.019 138.298 109.95C138.503 109.029 139.219 108.142 140.446 107.291Z"/>
</mask>
<path d="M168.079 147.125C171.234 144.936 173.153 142.274 173.834 139.14C174.566 135.517 173.671 131.886 171.147 128.249L154.184 103.797C151.661 100.16 148.574 98.0496 144.924 97.4661C141.749 97.0071 138.585 97.8719 135.43 100.061C132.274 102.25 130.356 104.911 129.674 108.045C128.942 111.669 129.838 115.299 132.361 118.936L149.324 143.388C151.848 147.025 154.934 149.136 158.585 149.719C161.759 150.178 164.924 149.313 168.079 147.125ZM140.446 107.291C141.716 106.41 142.797 106.049 143.688 106.21C144.74 106.324 145.829 107.192 146.954 108.813L163.917 133.265C165.042 134.887 165.473 136.21 165.211 137.236C165.05 138.126 164.334 139.012 163.063 139.894C161.836 140.745 160.755 141.106 159.821 140.975C158.738 140.817 157.649 139.95 156.555 138.372L139.592 113.92C138.497 112.343 138.066 111.019 138.298 109.95C138.503 109.029 139.219 108.142 140.446 107.291Z" fill="#DF80AC"/>
<path d="M173.834 139.14L176.766 139.778L176.771 139.756L176.775 139.734L173.834 139.14ZM144.924 97.4661L145.397 94.5037L145.375 94.5002L145.353 94.497L144.924 97.4661ZM129.674 108.045L126.743 107.408L126.738 107.43L126.734 107.451L129.674 108.045ZM158.585 149.719L158.111 152.682L158.133 152.685L158.155 152.688L158.585 149.719ZM143.688 106.21L143.154 109.163L143.259 109.182L143.366 109.193L143.688 106.21ZM165.211 137.236L162.304 136.493L162.278 136.597L162.259 136.702L165.211 137.236ZM159.821 140.975L159.389 143.944L159.397 143.945L159.406 143.946L159.821 140.975ZM138.298 109.95L135.369 109.298L135.368 109.306L135.366 109.314L138.298 109.95ZM169.789 149.59C173.438 147.058 175.892 143.795 176.766 139.778L170.903 138.502C170.413 140.753 169.031 142.813 166.369 144.66L169.789 149.59ZM176.775 139.734C177.7 135.154 176.502 130.705 173.612 126.539L168.682 129.959C170.839 133.068 171.432 135.879 170.894 138.546L176.775 139.734ZM173.612 126.539L156.649 102.087L151.719 105.507L168.682 129.959L173.612 126.539ZM156.649 102.087C153.759 97.9215 150.011 95.2412 145.397 94.5037L144.451 100.429C147.137 100.858 149.563 102.398 151.719 105.507L156.649 102.087ZM145.353 94.497C141.284 93.9086 137.368 95.0648 133.72 97.5958L137.14 102.526C139.801 100.679 142.215 100.106 144.495 100.435L145.353 94.497ZM133.72 97.5958C130.071 100.127 127.617 103.39 126.743 107.408L132.606 108.683C133.095 106.432 134.478 104.372 137.14 102.526L133.72 97.5958ZM126.734 107.451C125.809 112.031 127.007 116.481 129.896 120.646L134.826 117.226C132.67 114.117 132.076 111.306 132.615 108.639L126.734 107.451ZM129.896 120.646L146.86 145.098L151.789 141.678L134.826 117.226L129.896 120.646ZM146.86 145.098C149.749 149.264 153.497 151.944 158.111 152.682L159.058 146.757C156.371 146.327 153.946 144.787 151.789 141.678L146.86 145.098ZM158.155 152.688C162.225 153.277 166.141 152.121 169.789 149.59L166.369 144.66C163.707 146.506 161.294 147.08 159.014 146.75L158.155 152.688ZM142.156 109.756C142.634 109.424 142.965 109.27 143.158 109.206C143.342 109.144 143.316 109.192 143.154 109.163L144.222 103.258C142.149 102.883 140.227 103.792 138.736 104.826L142.156 109.756ZM143.366 109.193C143.174 109.172 143.187 109.104 143.424 109.292C143.667 109.486 144.029 109.861 144.489 110.523L149.419 107.103C148.191 105.334 146.434 103.49 144.01 103.228L143.366 109.193ZM144.489 110.523L161.452 134.975L166.382 131.555L149.419 107.103L144.489 110.523ZM161.452 134.975C161.911 135.637 162.135 136.108 162.232 136.403C162.325 136.691 162.257 136.68 162.304 136.493L168.117 137.979C168.721 135.616 167.609 133.324 166.382 131.555L161.452 134.975ZM162.259 136.702C162.288 136.54 162.342 136.532 162.22 136.683C162.092 136.841 161.832 137.097 161.353 137.429L164.773 142.359C166.264 141.325 167.788 139.842 168.163 137.77L162.259 136.702ZM161.353 137.429C160.906 137.74 160.584 137.89 160.384 137.957C160.192 138.02 160.16 137.993 160.236 138.004L159.406 143.946C161.419 144.227 163.271 143.401 164.773 142.359L161.353 137.429ZM160.253 138.006C160.362 138.022 160.302 138.051 160.062 137.86C159.814 137.662 159.459 137.295 159.02 136.662L154.09 140.082C155.324 141.862 157.043 143.602 159.389 143.944L160.253 138.006ZM159.02 136.662L142.057 112.21L137.127 115.63L154.09 140.082L159.02 136.662ZM142.057 112.21C141.618 111.577 141.398 111.116 141.3 110.815C141.205 110.523 141.253 110.477 141.23 110.585L135.366 109.314C134.864 111.632 135.892 113.851 137.127 115.63L142.057 112.21ZM141.226 110.601C141.209 110.676 141.195 110.636 141.322 110.48C141.455 110.315 141.708 110.067 142.156 109.756L138.736 104.826C137.234 105.868 135.811 107.314 135.369 109.298L141.226 110.601Z" fill="black" mask="url(#path-3-outside-2_1_29)"/>
<mask id="path-5-outside-3_1_29" maskUnits="userSpaceOnUse" x="164.799" y="69.3887" width="54.0403" height="70.1204" fill="black">
<rect fill="white" x="164.799" y="69.3887" width="54.0403" height="70.1204"/>
<path d="M198.441 111.257L203.658 130.233L195.095 132.587L189.878 113.611L169.837 81.4535L178.785 78.9934L189.816 96.7857L190.355 75.8123L199.303 73.3523L198.441 111.257Z"/>
</mask>
<path d="M198.441 111.257L203.658 130.233L195.095 132.587L189.878 113.611L169.837 81.4535L178.785 78.9934L189.816 96.7857L190.355 75.8123L199.303 73.3523L198.441 111.257Z" fill="#DF80AC"/>
<path d="M198.441 111.257L195.442 111.189L195.432 111.628L195.548 112.052L198.441 111.257ZM203.658 130.233L204.453 133.126L207.346 132.33L206.55 129.438L203.658 130.233ZM195.095 132.587L192.203 133.382L192.998 136.275L195.891 135.48L195.095 132.587ZM189.878 113.611L192.771 112.816L192.655 112.395L192.424 112.024L189.878 113.611ZM169.837 81.4535L169.042 78.5608L165.163 79.6269L167.291 83.0402L169.837 81.4535ZM178.785 78.9934L181.334 77.4126L180.152 75.5061L177.989 76.1007L178.785 78.9934ZM189.816 96.7857L187.266 98.3665L192.557 106.9L192.815 96.8628L189.816 96.7857ZM190.355 75.8123L189.56 72.9197L187.414 73.5098L187.356 75.7352L190.355 75.8123ZM199.303 73.3523L202.303 73.4206L202.394 69.3912L198.508 70.4596L199.303 73.3523ZM195.548 112.052L200.765 131.028L206.55 129.438L201.333 110.462L195.548 112.052ZM202.862 127.34L194.3 129.694L195.891 135.48L204.453 133.126L202.862 127.34ZM197.988 131.792L192.771 112.816L186.986 114.406L192.203 133.382L197.988 131.792ZM192.424 112.024L172.383 79.8667L167.291 83.0402L187.332 115.198L192.424 112.024ZM170.632 84.3461L179.58 81.8861L177.989 76.1007L169.042 78.5608L170.632 84.3461ZM176.235 80.5742L187.266 98.3665L192.366 95.2049L181.334 77.4126L176.235 80.5742ZM192.815 96.8628L193.354 75.8895L187.356 75.7352L186.817 96.7086L192.815 96.8628ZM191.151 78.705L200.099 76.245L198.508 70.4596L189.56 72.9197L191.151 78.705ZM196.304 73.284L195.442 111.189L201.44 111.325L202.303 73.4206L196.304 73.284Z" fill="black" mask="url(#path-5-outside-3_1_29)"/>
<mask id="path-7-outside-4_1_29" maskUnits="userSpaceOnUse" x="218.749" y="67.7823" width="33.4352" height="63.5872" fill="black">
<rect fill="white" x="218.749" y="67.7823" width="33.4352" height="63.5872"/>
<path d="M233.55 80.2377L232.759 94.2955L242.664 94.8527L242.169 103.639L232.265 103.082L231.393 118.577L245.771 119.386L245.276 128.172L222.113 126.869L225.258 70.9573L248.422 72.2604L247.928 81.0465L233.55 80.2377Z"/>
</mask>
<path d="M233.55 80.2377L232.759 94.2955L242.664 94.8527L242.169 103.639L232.265 103.082L231.393 118.577L245.771 119.386L245.276 128.172L222.113 126.869L225.258 70.9573L248.422 72.2604L247.928 81.0465L233.55 80.2377Z" fill="#DF80AC"/>
<path d="M233.55 80.2377L233.719 77.2424L230.723 77.0739L230.555 80.0692L233.55 80.2377ZM232.759 94.2955L229.764 94.1269L229.596 97.1222L232.591 97.2907L232.759 94.2955ZM242.664 94.8527L245.659 95.0212L245.827 92.0259L242.832 91.8574L242.664 94.8527ZM242.169 103.639L242.001 106.634L244.996 106.803L245.165 103.807L242.169 103.639ZM232.265 103.082L232.434 100.086L229.438 99.9178L229.27 102.913L232.265 103.082ZM231.393 118.577L228.398 118.409L228.23 121.404L231.225 121.572L231.393 118.577ZM245.771 119.386L248.766 119.554L248.934 116.559L245.939 116.391L245.771 119.386ZM245.276 128.172L245.108 131.167L248.103 131.336L248.272 128.341L245.276 128.172ZM222.113 126.869L219.118 126.7L218.949 129.696L221.944 129.864L222.113 126.869ZM225.258 70.9573L225.427 67.962L222.432 67.7935L222.263 70.7888L225.258 70.9573ZM248.422 72.2604L251.417 72.429L251.586 69.4337L248.59 69.2652L248.422 72.2604ZM247.928 81.0465L247.759 84.0418L250.754 84.2103L250.923 81.2151L247.928 81.0465ZM230.555 80.0692L229.764 94.1269L235.755 94.464L236.546 80.4062L230.555 80.0692ZM232.591 97.2907L242.495 97.8479L242.832 91.8574L232.928 91.3002L232.591 97.2907ZM239.668 94.6842L239.174 103.47L245.165 103.807L245.659 95.0212L239.668 94.6842ZM242.338 100.644L232.434 100.086L232.097 106.077L242.001 106.634L242.338 100.644ZM229.27 102.913L228.398 118.409L234.389 118.746L235.26 103.25L229.27 102.913ZM231.225 121.572L245.602 122.381L245.939 116.391L231.562 115.582L231.225 121.572ZM242.775 119.217L242.281 128.004L248.272 128.341L248.766 119.554L242.775 119.217ZM245.445 125.177L222.281 123.874L221.944 129.864L245.108 131.167L245.445 125.177ZM225.108 127.037L228.254 71.1258L222.263 70.7888L219.118 126.7L225.108 127.037ZM225.09 73.9525L248.253 75.2557L248.59 69.2652L225.427 67.962L225.09 73.9525ZM245.427 72.0919L244.932 80.878L250.923 81.2151L251.417 72.429L245.427 72.0919ZM248.096 78.0513L233.719 77.2424L233.382 83.233L247.759 84.0418L248.096 78.0513Z" fill="black" mask="url(#path-7-outside-4_1_29)"/>
<mask id="path-9-outside-5_1_29" maskUnits="userSpaceOnUse" x="249.095" y="73.5133" width="55.1836" height="71.1594" fill="black">
<rect fill="white" x="249.095" y="73.5133" width="55.1836" height="71.1594"/>
<path d="M266.186 135.2C269.646 136.603 272.923 136.753 276.018 135.648C279.492 134.179 282.04 131.443 283.664 127.44L299.778 87.7029L291.623 84.3958L275.509 124.133C274.787 125.912 273.915 126.997 272.893 127.388C272.01 127.721 270.877 127.607 269.493 127.045C268.06 126.464 267.142 125.747 266.74 124.893C266.309 123.97 266.464 122.594 267.206 120.765L283.32 81.0286L275.165 77.7215L259.051 117.458C257.387 121.56 257.31 125.299 258.819 128.673C260.172 131.582 262.628 133.757 266.186 135.2Z"/>
</mask>
<path d="M266.186 135.2C269.646 136.603 272.923 136.753 276.018 135.648C279.492 134.179 282.04 131.443 283.664 127.44L299.778 87.7029L291.623 84.3958L275.509 124.133C274.787 125.912 273.915 126.997 272.893 127.388C272.01 127.721 270.877 127.607 269.493 127.045C268.06 126.464 267.142 125.747 266.74 124.893C266.309 123.97 266.464 122.594 267.206 120.765L283.32 81.0286L275.165 77.7215L259.051 117.458C257.387 121.56 257.31 125.299 258.819 128.673C260.172 131.582 262.628 133.757 266.186 135.2Z" fill="#DF80AC"/>
<path d="M276.018 135.648L277.027 138.474L277.108 138.445L277.187 138.411L276.018 135.648ZM299.778 87.7029L302.558 88.8304L303.686 86.0503L300.906 84.9229L299.778 87.7029ZM291.623 84.3958L292.751 81.6157L289.971 80.4883L288.843 83.2684L291.623 84.3958ZM272.893 127.388L273.951 130.196L273.958 130.193L273.966 130.19L272.893 127.388ZM266.74 124.893L264.022 126.163L264.026 126.171L266.74 124.893ZM283.32 81.0286L286.1 82.156L287.228 79.3759L284.448 78.2485L283.32 81.0286ZM275.165 77.7215L276.293 74.9414L273.513 73.814L272.385 76.5941L275.165 77.7215ZM258.819 128.673L256.08 129.898L256.089 129.918L256.099 129.939L258.819 128.673ZM265.059 137.98C269.101 139.62 273.143 139.859 277.027 138.474L275.01 132.823C272.703 133.646 270.19 133.587 267.313 132.42L265.059 137.98ZM277.187 138.411C281.501 136.587 284.569 133.191 286.444 128.567L280.884 126.312C279.512 129.695 277.482 131.772 274.85 132.885L277.187 138.411ZM286.444 128.567L302.558 88.8304L296.998 86.5755L280.884 126.312L286.444 128.567ZM300.906 84.9229L292.751 81.6157L290.496 87.1759L298.651 90.483L300.906 84.9229ZM288.843 83.2684L272.729 123.005L278.289 125.26L294.403 85.5233L288.843 83.2684ZM272.729 123.005C272.439 123.719 272.173 124.155 271.975 124.402C271.783 124.641 271.718 124.626 271.821 124.587L273.966 130.19C276.18 129.342 277.475 127.267 278.289 125.26L272.729 123.005ZM271.836 124.581C271.908 124.554 271.883 124.587 271.682 124.567C271.472 124.546 271.125 124.47 270.621 124.265L268.366 129.826C270.059 130.512 272.049 130.912 273.951 130.196L271.836 124.581ZM270.621 124.265C270.083 124.047 269.759 123.849 269.578 123.708C269.404 123.572 269.414 123.529 269.454 123.615L264.026 126.171C264.901 128.029 266.654 129.131 268.366 129.826L270.621 124.265ZM269.458 123.623C269.546 123.811 269.477 123.834 269.514 123.505C269.551 123.177 269.678 122.652 269.986 121.893L264.425 119.638C263.632 121.594 263.024 124.026 264.022 126.163L269.458 123.623ZM269.986 121.893L286.1 82.156L280.54 79.9012L264.425 119.638L269.986 121.893ZM284.448 78.2485L276.293 74.9414L274.038 80.5016L282.193 83.8087L284.448 78.2485ZM272.385 76.5941L256.271 116.331L261.831 118.586L277.945 78.8489L272.385 76.5941ZM256.271 116.331C254.365 121.029 254.173 125.633 256.08 129.898L261.558 127.449C260.447 124.965 260.409 122.092 261.831 118.586L256.271 116.331ZM256.099 129.939C257.833 133.667 260.944 136.312 265.059 137.98L267.313 132.42C264.311 131.203 262.511 129.497 261.539 127.408L256.099 129.939Z" fill="black" mask="url(#path-9-outside-5_1_29)"/>
<mask id="path-11-outside-6_1_29" maskUnits="userSpaceOnUse" x="280.401" y="96.233" width="72.0318" height="73.463" fill="black">
<rect fill="white" x="280.401" y="96.233" width="72.0318" height="73.463"/>
<path d="M302.378 158.037L308.89 141.582L293.197 149.702L286.268 143.41L312.735 129.73L323.911 101.95L330.841 108.241L324.27 124.643L339.962 116.523L346.951 122.869L320.317 136.613L309.308 164.329L302.378 158.037Z"/>
</mask>
<path d="M302.378 158.037L308.89 141.582L293.197 149.702L286.268 143.41L312.735 129.73L323.911 101.95L330.841 108.241L324.27 124.643L339.962 116.523L346.951 122.869L320.317 136.613L309.308 164.329L302.378 158.037Z" fill="#DF80AC"/>
<path d="M302.378 158.037L299.588 156.933L298.825 158.863L300.361 160.258L302.378 158.037ZM308.89 141.582L311.679 142.686L314.628 135.235L307.511 138.918L308.89 141.582ZM293.197 149.702L291.181 151.923L292.724 153.324L294.576 152.366L293.197 149.702ZM286.268 143.41L284.89 140.745L281.053 142.728L284.251 145.631L286.268 143.41ZM312.735 129.73L314.113 132.395L315.103 131.883L315.519 130.85L312.735 129.73ZM323.911 101.95L325.928 99.7285L322.737 96.8311L321.128 100.83L323.911 101.95ZM330.841 108.241L333.626 109.357L334.401 107.422L332.858 106.02L330.841 108.241ZM324.27 124.643L321.485 123.527L318.486 131.013L325.649 127.307L324.27 124.643ZM339.962 116.523L341.979 114.302L340.435 112.9L338.584 113.859L339.962 116.523ZM346.951 122.869L348.327 125.535L352.168 123.553L348.968 120.648L346.951 122.869ZM320.317 136.613L318.941 133.947L317.943 134.462L317.529 135.506L320.317 136.613ZM309.308 164.329L307.291 166.55L310.497 169.461L312.096 165.436L309.308 164.329ZM305.167 159.141L311.679 142.686L306.1 140.478L299.588 156.933L305.167 159.141ZM307.511 138.918L291.819 147.037L294.576 152.366L310.268 144.247L307.511 138.918ZM295.214 147.481L288.284 141.189L284.251 145.631L291.181 151.923L295.214 147.481ZM287.645 146.075L314.113 132.395L311.358 127.065L284.89 140.745L287.645 146.075ZM315.519 130.85L326.694 103.069L321.128 100.83L309.952 128.61L315.519 130.85ZM321.895 104.171L328.824 110.463L332.858 106.02L325.928 99.7285L321.895 104.171ZM328.056 107.126L321.485 123.527L327.055 125.758L333.626 109.357L328.056 107.126ZM325.649 127.307L341.341 119.187L338.584 113.859L322.891 121.978L325.649 127.307ZM337.946 118.744L344.935 125.09L348.968 120.648L341.979 114.302L337.946 118.744ZM345.576 120.203L318.941 133.947L321.692 139.279L348.327 125.535L345.576 120.203ZM317.529 135.506L306.52 163.221L312.096 165.436L323.105 137.721L317.529 135.506ZM311.324 162.108L304.394 155.816L300.361 160.258L307.291 166.55L311.324 162.108Z" fill="black" mask="url(#path-11-outside-6_1_29)"/>
<mask id="path-13-outside-7_1_29" maskUnits="userSpaceOnUse" x="326.134" y="172.241" width="68.9601" height="51.4708" fill="black">
<rect fill="white" x="326.134" y="172.241" width="68.9601" height="51.4708"/>
<path d="M343.065 207.163L340.887 197.321L331.871 197.677L329.936 188.929L387.033 187.769L388.934 196.361L336.675 219.392L334.74 210.644L343.065 207.163ZM351.329 203.779L370.174 196.005L349.808 196.905L351.329 203.779Z"/>
</mask>
<path d="M343.065 207.163L340.887 197.321L331.871 197.677L329.936 188.929L387.033 187.769L388.934 196.361L336.675 219.392L334.74 210.644L343.065 207.163ZM351.329 203.779L370.174 196.005L349.808 196.905L351.329 203.779Z" fill="#DF80AC"/>
<path d="M343.065 207.163L344.222 209.931L346.535 208.964L345.994 206.515L343.065 207.163ZM340.887 197.321L343.817 196.673L343.275 194.225L340.769 194.324L340.887 197.321ZM331.871 197.677L328.942 198.325L329.484 200.774L331.99 200.675L331.871 197.677ZM329.936 188.929L329.875 185.929L326.217 186.004L327.007 189.577L329.936 188.929ZM387.033 187.769L389.963 187.121L389.431 184.719L386.973 184.769L387.033 187.769ZM388.934 196.361L390.144 199.106L392.395 198.114L391.863 195.713L388.934 196.361ZM336.675 219.392L333.746 220.04L334.536 223.613L337.885 222.137L336.675 219.392ZM334.74 210.644L333.583 207.876L331.269 208.843L331.811 211.292L334.74 210.644ZM351.329 203.779L348.399 204.427L349.171 207.914L352.473 206.552L351.329 203.779ZM370.174 196.005L371.318 198.778L370.042 193.007L370.174 196.005ZM349.808 196.905L349.676 193.908L346.107 194.065L346.879 197.553L349.808 196.905ZM345.994 206.515L343.817 196.673L337.958 197.969L340.135 207.811L345.994 206.515ZM340.769 194.324L331.753 194.679L331.99 200.675L341.006 200.319L340.769 194.324ZM334.801 197.029L332.865 188.281L327.007 189.577L328.942 198.325L334.801 197.029ZM329.997 191.928L387.094 190.768L386.973 184.769L329.875 185.929L329.997 191.928ZM384.104 188.417L386.005 197.009L391.863 195.713L389.963 187.121L384.104 188.417ZM387.724 193.616L335.465 216.647L337.885 222.137L390.144 199.106L387.724 193.616ZM339.604 218.744L337.669 209.996L331.811 211.292L333.746 220.04L339.604 218.744ZM335.897 213.411L344.222 209.931L341.908 204.396L333.583 207.876L335.897 213.411ZM352.473 206.552L371.318 198.778L369.03 193.231L350.185 201.005L352.473 206.552ZM370.042 193.007L349.676 193.908L349.941 199.902L370.307 199.002L370.042 193.007ZM346.879 197.553L348.399 204.427L354.258 203.131L352.737 196.257L346.879 197.553Z" fill="black" mask="url(#path-13-outside-7_1_29)"/>
<mask id="path-15-outside-8_1_29" maskUnits="userSpaceOnUse" x="329.8" y="223.348" width="66.2457" height="43.2405" fill="black">
<rect fill="white" x="329.8" y="223.348" width="66.2457" height="43.2405"/>
<path d="M333.291 254.703L334 249.632L363.986 240.25L335.859 236.321L337.076 227.606L392.538 235.353L391.83 240.424L361.923 249.817L389.97 253.735L388.753 262.45L333.291 254.703Z"/>
</mask>
<path d="M333.291 254.703L334 249.632L363.986 240.25L335.859 236.321L337.076 227.606L392.538 235.353L391.83 240.424L361.923 249.817L389.97 253.735L388.753 262.45L333.291 254.703Z" fill="#DF80AC"/>
<path d="M333.291 254.703L330.32 254.288L329.905 257.259L332.876 257.674L333.291 254.703ZM334 249.632L333.104 246.769L331.291 247.336L331.028 249.217L334 249.632ZM363.986 240.25L364.882 243.113L364.401 237.279L363.986 240.25ZM335.859 236.321L332.888 235.906L332.473 238.878L335.444 239.293L335.859 236.321ZM337.076 227.606L337.491 224.635L334.52 224.22L334.105 227.191L337.076 227.606ZM392.538 235.353L395.509 235.768L395.924 232.797L392.953 232.382L392.538 235.353ZM391.83 240.424L392.728 243.286L394.538 242.718L394.801 240.839L391.83 240.424ZM361.923 249.817L361.024 246.955L361.508 252.788L361.923 249.817ZM389.97 253.735L392.941 254.15L393.356 251.178L390.385 250.763L389.97 253.735ZM388.753 262.45L388.338 265.421L391.309 265.836L391.724 262.865L388.753 262.45ZM336.262 255.118L336.971 250.047L331.028 249.217L330.32 254.288L336.262 255.118ZM334.895 252.495L364.882 243.113L363.09 237.387L333.104 246.769L334.895 252.495ZM364.401 237.279L336.274 233.35L335.444 239.293L363.571 243.221L364.401 237.279ZM338.83 236.736L340.047 228.021L334.105 227.191L332.888 235.906L338.83 236.736ZM336.661 230.577L392.123 238.324L392.953 232.382L337.491 224.635L336.661 230.577ZM389.567 234.938L388.858 240.009L394.801 240.839L395.509 235.768L389.567 234.938ZM390.931 237.562L361.024 246.955L362.821 252.679L392.728 243.286L390.931 237.562ZM361.508 252.788L389.555 256.706L390.385 250.763L362.338 246.846L361.508 252.788ZM386.999 253.32L385.782 262.035L391.724 262.865L392.941 254.15L386.999 253.32ZM389.168 259.479L333.706 251.732L332.876 257.674L388.338 265.421L389.168 259.479Z" fill="black" mask="url(#path-15-outside-8_1_29)"/>
<mask id="path-17-outside-9_1_29" maskUnits="userSpaceOnUse" x="313.094" y="259.682" width="71.1845" height="60.2613" fill="black">
<rect fill="white" x="313.094" y="259.682" width="71.1845" height="60.2613"/>
<path d="M317.521 288.594L319.954 284.089L351.329 285.762L326.342 272.264L330.524 264.522L379.795 291.137L377.362 295.642L346.057 294.007L370.974 307.467L366.792 315.209L317.521 288.594Z"/>
</mask>
<path d="M317.521 288.594L319.954 284.089L351.329 285.762L326.342 272.264L330.524 264.522L379.795 291.137L377.362 295.642L346.057 294.007L370.974 307.467L366.792 315.209L317.521 288.594Z" fill="#DF80AC"/>
<path d="M317.521 288.594L314.881 287.168L313.456 289.808L316.095 291.234L317.521 288.594ZM319.954 284.089L320.114 281.093L318.218 280.992L317.315 282.663L319.954 284.089ZM351.329 285.762L351.17 288.758L352.755 283.122L351.329 285.762ZM326.342 272.264L323.703 270.838L322.277 273.478L324.916 274.904L326.342 272.264ZM330.524 264.522L331.95 261.882L329.311 260.456L327.885 263.096L330.524 264.522ZM379.795 291.137L382.435 292.563L383.861 289.923L381.221 288.497L379.795 291.137ZM377.362 295.642L377.206 298.638L379.1 298.737L380.002 297.067L377.362 295.642ZM346.057 294.007L346.214 291.011L344.631 296.646L346.057 294.007ZM370.974 307.467L373.614 308.893L375.04 306.253L372.4 304.827L370.974 307.467ZM366.792 315.209L365.366 317.849L368.006 319.275L369.431 316.635L366.792 315.209ZM320.16 290.02L322.594 285.515L317.315 282.663L314.881 287.168L320.16 290.02ZM319.795 287.085L351.17 288.758L351.489 282.766L320.114 281.093L319.795 287.085ZM352.755 283.122L327.768 269.625L324.916 274.904L349.904 288.401L352.755 283.122ZM328.982 273.69L333.164 265.947L327.885 263.096L323.703 270.838L328.982 273.69ZM329.099 267.161L378.37 293.776L381.221 288.497L331.95 261.882L329.099 267.161ZM377.156 289.711L374.722 294.216L380.002 297.067L382.435 292.563L377.156 289.711ZM377.518 292.646L346.214 291.011L345.901 297.003L377.206 298.638L377.518 292.646ZM344.631 296.646L369.548 310.106L372.4 304.827L347.483 291.367L344.631 296.646ZM368.335 306.041L364.152 313.783L369.431 316.635L373.614 308.893L368.335 306.041ZM368.218 312.57L318.947 285.954L316.095 291.234L365.366 317.849L368.218 312.57Z" fill="black" mask="url(#path-17-outside-9_1_29)"/>
<mask id="path-19-outside-10_1_29" maskUnits="userSpaceOnUse" x="299.76" y="292.614" width="54.9688" height="53.9119" fill="black">
<rect fill="white" x="299.76" y="292.614" width="54.9688" height="53.9119"/>
<path d="M344.225 342.283L350.348 335.963L310.125 296.999L304.002 303.32L344.225 342.283Z"/>
</mask>
<path d="M344.225 342.283L350.348 335.963L310.125 296.999L304.002 303.32L344.225 342.283Z" fill="#DF80AC"/>
<path d="M344.225 342.283L342.138 344.438L344.292 346.526L346.38 344.371L344.225 342.283ZM350.348 335.963L352.503 338.05L354.59 335.895L352.435 333.808L350.348 335.963ZM310.125 296.999L312.213 294.845L310.058 292.757L307.97 294.912L310.125 296.999ZM304.002 303.32L301.848 301.233L299.76 303.388L301.915 305.475L304.002 303.32ZM346.38 344.371L352.503 338.05L348.193 333.875L342.07 340.196L346.38 344.371ZM352.435 333.808L312.213 294.845L308.038 299.154L348.261 338.117L352.435 333.808ZM307.97 294.912L301.848 301.233L306.157 305.407L312.28 299.087L307.97 294.912ZM301.915 305.475L342.138 344.438L346.312 340.129L306.09 301.165L301.915 305.475Z" fill="black" mask="url(#path-19-outside-10_1_29)"/>
<mask id="path-21-outside-11_1_29" maskUnits="userSpaceOnUse" x="266.734" y="305.253" width="65.0481" height="73.2135" fill="black">
<rect fill="white" x="266.734" y="305.253" width="65.0481" height="73.2135"/>
<path d="M307.746 369.351L300.023 373.893L281.287 319.945L288.873 315.483L326.916 358.076L319.193 362.618L294.286 333.367L307.746 369.351Z"/>
</mask>
<path d="M307.746 369.351L300.023 373.893L281.287 319.945L288.873 315.483L326.916 358.076L319.193 362.618L294.286 333.367L307.746 369.351Z" fill="#DF80AC"/>
<path d="M307.746 369.351L309.267 371.937L311.439 370.659L310.556 368.3L307.746 369.351ZM300.023 373.893L297.189 374.877L298.389 378.334L301.544 376.479L300.023 373.893ZM281.287 319.945L279.767 317.359L277.647 318.605L278.453 320.929L281.287 319.945ZM288.873 315.483L291.11 313.485L289.472 311.651L287.352 312.897L288.873 315.483ZM326.916 358.076L328.437 360.662L331.591 358.807L329.154 356.078L326.916 358.076ZM319.193 362.618L316.909 364.563L318.542 366.481L320.714 365.204L319.193 362.618ZM294.286 333.367L296.571 331.422L291.477 334.418L294.286 333.367ZM306.225 366.765L298.502 371.307L301.544 376.479L309.267 371.937L306.225 366.765ZM302.857 372.909L284.121 318.96L278.453 320.929L297.189 374.877L302.857 372.909ZM282.808 322.53L290.394 318.069L287.352 312.897L279.767 317.359L282.808 322.53ZM286.635 317.482L324.679 360.074L329.154 356.078L291.11 313.485L286.635 317.482ZM325.395 355.49L317.672 360.032L320.714 365.204L328.437 360.662L325.395 355.49ZM321.477 360.673L296.571 331.422L292.002 335.312L316.909 364.563L321.477 360.673ZM291.477 334.418L304.936 370.402L310.556 368.3L297.096 332.316L291.477 334.418Z" fill="black" mask="url(#path-21-outside-11_1_29)"/>
<mask id="path-23-outside-12_1_29" maskUnits="userSpaceOnUse" x="237.27" y="324.425" width="41.8607" height="66.768" fill="black">
<rect fill="white" x="237.27" y="324.425" width="41.8607" height="66.768"/>
<path d="M265.002 376.012L262.169 362.22L252.452 364.216L250.682 355.596L260.399 353.6L257.276 338.398L243.171 341.295L241.4 332.675L264.126 328.007L275.393 382.862L252.667 387.53L250.897 378.91L265.002 376.012Z"/>
</mask>
<path d="M265.002 376.012L262.169 362.22L252.452 364.216L250.682 355.596L260.399 353.6L257.276 338.398L243.171 341.295L241.4 332.675L264.126 328.007L275.393 382.862L252.667 387.53L250.897 378.91L265.002 376.012Z" fill="#DF80AC"/>
<path d="M265.002 376.012L265.606 378.951L268.544 378.348L267.941 375.409L265.002 376.012ZM262.169 362.22L265.108 361.617L264.504 358.678L261.566 359.282L262.169 362.22ZM252.452 364.216L249.514 364.82L250.117 367.758L253.056 367.155L252.452 364.216ZM250.682 355.596L250.078 352.658L247.139 353.261L247.743 356.2L250.682 355.596ZM260.399 353.6L261.002 356.539L263.941 355.935L263.337 352.997L260.399 353.6ZM257.276 338.398L260.215 337.794L259.611 334.855L256.673 335.459L257.276 338.398ZM243.171 341.295L240.232 341.899L240.836 344.837L243.774 344.234L243.171 341.295ZM241.4 332.675L240.797 329.736L237.858 330.34L238.462 333.278L241.4 332.675ZM264.126 328.007L267.064 327.404L266.461 324.465L263.522 325.068L264.126 328.007ZM275.393 382.862L275.996 385.801L278.935 385.197L278.331 382.258L275.393 382.862ZM252.667 387.53L249.729 388.133L250.332 391.072L253.271 390.468L252.667 387.53ZM250.897 378.91L250.293 375.971L247.354 376.575L247.958 379.513L250.897 378.91ZM267.941 375.409L265.108 361.617L259.231 362.824L262.064 376.616L267.941 375.409ZM261.566 359.282L251.849 361.278L253.056 367.155L262.773 365.159L261.566 359.282ZM255.391 363.613L253.62 354.993L247.743 356.2L249.514 364.82L255.391 363.613ZM251.285 358.535L261.002 356.539L259.795 350.662L250.078 352.658L251.285 358.535ZM263.337 352.997L260.215 337.794L254.338 339.001L257.46 354.204L263.337 352.997ZM256.673 335.459L242.567 338.356L243.774 344.234L257.88 341.336L256.673 335.459ZM246.109 340.691L244.339 332.071L238.462 333.278L240.232 341.899L246.109 340.691ZM242.004 335.614L264.729 330.946L263.522 325.068L240.797 329.736L242.004 335.614ZM261.187 328.611L272.454 383.466L278.331 382.258L267.064 327.404L261.187 328.611ZM274.789 379.923L252.064 384.591L253.271 390.468L275.996 385.801L274.789 379.923ZM255.606 386.926L253.835 378.306L247.958 379.513L249.729 388.133L255.606 386.926ZM251.5 381.848L265.606 378.951L264.399 373.074L250.293 375.971L251.5 381.848Z" fill="black" mask="url(#path-23-outside-12_1_29)"/>
<mask id="path-25-outside-13_1_29" maskUnits="userSpaceOnUse" x="194.301" y="326.7" width="41.2879" height="65.6747" fill="black">
<rect fill="white" x="194.301" y="326.7" width="41.2879" height="65.6747"/>
<path d="M205.924 330.222L214.817 331.312L216.609 354.18L220.58 354.666L223.314 332.353L232.048 333.423L225.238 389.008L212.056 387.392C208.298 386.932 205.364 385.444 203.254 382.929C200.905 380.169 200.003 376.566 200.548 372.12L201.278 366.164C201.829 361.664 203.578 358.359 206.523 356.248C206.939 355.923 207.404 355.631 207.92 355.372L205.924 330.222ZM209.283 373.19C209.056 375.043 209.291 376.415 209.988 377.306C210.598 378.026 211.644 378.476 213.126 378.658L217.573 379.203L219.509 363.401L215.063 362.856C213.58 362.674 212.456 362.859 211.69 363.41C210.805 364.054 210.246 365.329 210.013 367.234L209.283 373.19Z"/>
</mask>
<path d="M205.924 330.222L214.817 331.312L216.609 354.18L220.58 354.666L223.314 332.353L232.048 333.423L225.238 389.008L212.056 387.392C208.298 386.932 205.364 385.444 203.254 382.929C200.905 380.169 200.003 376.566 200.548 372.12L201.278 366.164C201.829 361.664 203.578 358.359 206.523 356.248C206.939 355.923 207.404 355.631 207.92 355.372L205.924 330.222ZM209.283 373.19C209.056 375.043 209.291 376.415 209.988 377.306C210.598 378.026 211.644 378.476 213.126 378.658L217.573 379.203L219.509 363.401L215.063 362.856C213.58 362.674 212.456 362.859 211.69 363.41C210.805 364.054 210.246 365.329 210.013 367.234L209.283 373.19Z" fill="#DF80AC"/>
<path d="M205.924 330.222L206.288 327.245L202.642 326.798L202.933 330.46L205.924 330.222ZM214.817 331.312L217.808 331.078L217.616 328.632L215.182 328.334L214.817 331.312ZM216.609 354.18L213.618 354.414L213.81 356.859L216.244 357.157L216.609 354.18ZM220.58 354.666L220.215 357.644L223.192 358.009L223.557 355.031L220.58 354.666ZM223.314 332.353L223.678 329.375L220.701 329.01L220.336 331.988L223.314 332.353ZM232.048 333.423L235.026 333.788L235.391 330.81L232.413 330.445L232.048 333.423ZM225.238 389.008L224.873 391.985L227.851 392.35L228.215 389.372L225.238 389.008ZM203.254 382.929L205.552 381.001L205.545 380.993L205.538 380.984L203.254 382.929ZM206.523 356.248L208.27 358.687L208.321 358.65L208.37 358.612L206.523 356.248ZM207.92 355.372L209.268 358.052L211.07 357.145L210.91 355.134L207.92 355.372ZM209.988 377.306L207.624 379.154L207.661 379.201L207.7 379.247L209.988 377.306ZM217.573 379.203L217.208 382.18L220.186 382.545L220.551 379.567L217.573 379.203ZM219.509 363.401L222.487 363.766L222.852 360.788L219.874 360.423L219.509 363.401ZM211.69 363.41L209.939 360.974L209.932 360.979L209.925 360.984L211.69 363.41ZM205.559 333.2L214.452 334.29L215.182 328.334L206.288 327.245L205.559 333.2ZM211.826 331.546L213.618 354.414L219.6 353.945L217.808 331.078L211.826 331.546ZM216.244 357.157L220.215 357.644L220.944 351.688L216.974 351.202L216.244 357.157ZM223.557 355.031L226.291 332.718L220.336 331.988L217.602 354.301L223.557 355.031ZM222.949 335.331L231.683 336.401L232.413 330.445L223.678 329.375L222.949 335.331ZM229.07 333.058L222.26 388.643L228.215 389.372L235.026 333.788L229.07 333.058ZM225.603 386.03L212.421 384.415L211.691 390.37L224.873 391.985L225.603 386.03ZM212.421 384.415C209.293 384.031 207.099 382.845 205.552 381.001L200.955 384.857C203.628 388.043 207.303 389.832 211.691 390.37L212.421 384.415ZM205.538 380.984C203.858 379.01 203.057 376.31 203.526 372.484L197.571 371.755C196.95 376.823 197.953 381.329 200.969 384.873L205.538 380.984ZM203.526 372.484L204.256 366.529L198.3 365.799L197.571 371.755L203.526 372.484ZM204.256 366.529C204.732 362.638 206.171 360.191 208.27 358.687L204.775 353.81C200.984 356.527 198.926 360.69 198.3 365.799L204.256 366.529ZM208.37 358.612C208.617 358.419 208.913 358.23 209.268 358.052L206.572 352.692C205.896 353.032 205.26 353.427 204.675 353.885L208.37 358.612ZM210.91 355.134L208.914 329.985L202.933 330.46L204.929 355.609L210.91 355.134ZM206.305 372.825C206.041 374.98 206.201 377.333 207.624 379.154L212.351 375.458C212.371 375.484 212.299 375.41 212.246 375.102C212.191 374.783 212.171 374.283 212.261 373.555L206.305 372.825ZM207.7 379.247C209.015 380.797 210.948 381.413 212.762 381.635L213.491 375.68C212.951 375.614 212.611 375.512 212.417 375.428C212.232 375.349 212.225 375.307 212.275 375.365L207.7 379.247ZM212.762 381.635L217.208 382.18L217.938 376.225L213.491 375.68L212.762 381.635ZM220.551 379.567L222.487 363.766L216.532 363.036L214.595 378.838L220.551 379.567ZM219.874 360.423L215.427 359.878L214.698 365.834L219.145 366.379L219.874 360.423ZM215.427 359.878C213.613 359.656 211.589 359.788 209.939 360.974L213.442 365.845C213.379 365.89 213.395 365.851 213.594 365.819C213.803 365.784 214.157 365.767 214.698 365.834L215.427 359.878ZM209.925 360.984C208.008 362.379 207.298 364.72 207.035 366.869L212.99 367.599C213.084 366.835 213.227 366.344 213.354 366.054C213.478 365.773 213.545 365.771 213.455 365.836L209.925 360.984ZM207.035 366.869L206.305 372.825L212.261 373.555L212.99 367.599L207.035 366.869Z" fill="black" mask="url(#path-25-outside-13_1_29)"/>
<mask id="path-27-outside-14_1_29" maskUnits="userSpaceOnUse" x="144.715" y="311.34" width="58.6901" height="72.4318" fill="black">
<rect fill="white" x="144.715" y="311.34" width="58.6901" height="72.4318"/>
<path d="M186.481 321.749C183.033 320.059 179.774 319.68 176.705 320.611C173.184 321.737 170.449 324.287 168.502 328.263L166.953 331.424C164.7 336.021 164.572 340.769 166.567 345.666C167.103 346.998 168.287 348.944 170.121 351.505C171.134 352.952 171.787 353.984 172.078 354.602C173.076 357.051 173.035 359.377 171.956 361.58L171.357 362.801C170.512 364.525 169.567 365.547 168.52 365.865C167.616 366.135 166.493 365.941 165.152 365.284C163.763 364.604 162.922 363.836 162.629 362.979C162.215 362.005 162.443 360.631 163.311 358.859L165.458 354.477L157.555 350.605L155.408 354.988C153.461 358.963 153.121 362.686 154.39 366.159C155.535 369.155 157.832 371.497 161.28 373.187C164.729 374.876 167.987 375.255 171.057 374.324C174.578 373.199 177.312 370.648 179.26 366.673L179.858 365.452C180.961 363.201 181.538 360.87 181.59 358.461C181.643 356.051 181.182 353.658 180.209 351.281C179.601 349.854 178.465 347.991 176.8 345.691C175.618 343.983 174.917 342.868 174.698 342.345C173.724 339.848 173.776 337.498 174.856 335.295L176.404 332.134C177.272 330.362 178.218 329.341 179.242 329.07C180.098 328.777 181.221 328.971 182.61 329.651C183.951 330.308 184.792 331.076 185.133 331.956C185.523 332.979 185.295 334.352 184.45 336.076L181.248 342.614L189.15 346.485L192.353 339.948C194.301 335.973 194.64 332.249 193.372 328.777C192.226 325.781 189.93 323.438 186.481 321.749Z"/>
</mask>
<path d="M186.481 321.749C183.033 320.059 179.774 319.68 176.705 320.611C173.184 321.737 170.449 324.287 168.502 328.263L166.953 331.424C164.7 336.021 164.572 340.769 166.567 345.666C167.103 346.998 168.287 348.944 170.121 351.505C171.134 352.952 171.787 353.984 172.078 354.602C173.076 357.051 173.035 359.377 171.956 361.58L171.357 362.801C170.512 364.525 169.567 365.547 168.52 365.865C167.616 366.135 166.493 365.941 165.152 365.284C163.763 364.604 162.922 363.836 162.629 362.979C162.215 362.005 162.443 360.631 163.311 358.859L165.458 354.477L157.555 350.605L155.408 354.988C153.461 358.963 153.121 362.686 154.39 366.159C155.535 369.155 157.832 371.497 161.28 373.187C164.729 374.876 167.987 375.255 171.057 374.324C174.578 373.199 177.312 370.648 179.26 366.673L179.858 365.452C180.961 363.201 181.538 360.87 181.59 358.461C181.643 356.051 181.182 353.658 180.209 351.281C179.601 349.854 178.465 347.991 176.8 345.691C175.618 343.983 174.917 342.868 174.698 342.345C173.724 339.848 173.776 337.498 174.856 335.295L176.404 332.134C177.272 330.362 178.218 329.341 179.242 329.07C180.098 328.777 181.221 328.971 182.61 329.651C183.951 330.308 184.792 331.076 185.133 331.956C185.523 332.979 185.295 334.352 184.45 336.076L181.248 342.614L189.15 346.485L192.353 339.948C194.301 335.973 194.64 332.249 193.372 328.777C192.226 325.781 189.93 323.438 186.481 321.749Z" fill="#DF80AC"/>
<path d="M176.705 320.611L175.834 317.74L175.812 317.747L175.791 317.754L176.705 320.611ZM166.567 345.666L169.351 344.547L169.346 344.534L166.567 345.666ZM170.121 351.505L172.578 349.784L172.569 349.772L172.56 349.759L170.121 351.505ZM172.078 354.602L174.856 353.47L174.826 353.396L174.792 353.323L172.078 354.602ZM168.52 365.865L169.377 368.74L169.385 368.738L169.393 368.735L168.52 365.865ZM162.629 362.979L165.467 362.008L165.432 361.906L165.391 361.808L162.629 362.979ZM165.458 354.477L168.152 355.797L169.472 353.103L166.778 351.783L165.458 354.477ZM157.555 350.605L158.875 347.911L156.181 346.591L154.861 349.285L157.555 350.605ZM154.39 366.159L151.572 367.188L151.58 367.209L151.587 367.23L154.39 366.159ZM171.057 374.324L171.928 377.195L171.949 377.189L171.97 377.182L171.057 374.324ZM180.209 351.281L182.985 350.144L182.977 350.124L182.968 350.104L180.209 351.281ZM176.8 345.691L174.334 347.399L174.351 347.424L174.37 347.45L176.8 345.691ZM174.698 342.345L171.903 343.435L171.917 343.469L171.931 343.503L174.698 342.345ZM179.242 329.07L180.009 331.97L180.112 331.943L180.213 331.908L179.242 329.07ZM185.133 331.956L187.936 330.887L187.933 330.88L187.93 330.872L185.133 331.956ZM181.248 342.614L178.554 341.294L177.234 343.988L179.928 345.308L181.248 342.614ZM189.15 346.485L187.83 349.18L190.524 350.499L191.844 347.805L189.15 346.485ZM193.372 328.777L196.19 327.747L196.182 327.727L196.174 327.706L193.372 328.777ZM187.801 319.054C183.814 317.101 179.768 316.547 175.834 317.74L177.576 323.482C179.78 322.813 182.252 323.017 185.161 324.443L187.801 319.054ZM175.791 317.754C171.341 319.177 168.038 322.39 165.808 326.943L171.196 329.582C172.86 326.185 175.027 324.297 177.618 323.469L175.791 317.754ZM165.808 326.943L164.259 330.104L169.647 332.743L171.196 329.582L165.808 326.943ZM164.259 330.104C161.616 335.498 161.483 341.139 163.789 346.798L169.346 344.534C167.661 340.399 167.785 336.545 169.647 332.743L164.259 330.104ZM163.784 346.786C164.464 348.475 165.834 350.67 167.682 353.252L172.56 349.759C170.741 347.218 169.742 345.52 169.351 344.547L163.784 346.786ZM167.664 353.227C168.686 354.685 169.196 355.525 169.364 355.881L174.792 353.323C174.377 352.444 173.583 351.219 172.578 349.784L167.664 353.227ZM169.3 355.734C170.003 357.46 169.933 358.89 169.262 360.26L174.65 362.9C176.137 359.864 176.148 356.641 174.856 353.47L169.3 355.734ZM169.262 360.26L168.663 361.481L174.051 364.121L174.65 362.9L169.262 360.26ZM168.663 361.481C168.324 362.173 168.029 362.589 167.813 362.822C167.605 363.047 167.541 363.027 167.646 362.995L169.393 368.735C171.661 368.045 173.098 366.066 174.051 364.121L168.663 361.481ZM167.662 362.99C167.736 362.968 167.708 363 167.51 362.966C167.301 362.93 166.961 362.83 166.472 362.59L163.832 367.978C165.473 368.783 167.429 369.321 169.377 368.74L167.662 362.99ZM166.472 362.59C165.949 362.334 165.653 362.12 165.503 361.983C165.36 361.852 165.414 361.852 165.467 362.008L159.79 363.951C160.473 365.944 162.202 367.18 163.832 367.978L166.472 362.59ZM165.391 361.808C165.466 361.985 165.4 362.007 165.449 361.708C165.5 361.402 165.65 360.903 166.005 360.179L160.617 357.539C159.67 359.473 158.915 361.906 159.867 364.151L165.391 361.808ZM166.005 360.179L168.152 355.797L162.764 353.157L160.617 357.539L166.005 360.179ZM166.778 351.783L158.875 347.911L156.236 353.299L164.138 357.171L166.778 351.783ZM154.861 349.285L152.714 353.668L158.103 356.307L160.25 351.925L154.861 349.285ZM152.714 353.668C150.484 358.22 149.969 362.799 151.572 367.188L157.208 365.129C156.274 362.574 156.438 359.705 158.103 356.307L152.714 353.668ZM151.587 367.23C153.056 371.07 155.973 373.927 159.96 375.881L162.6 370.493C159.691 369.068 158.014 367.239 157.192 365.087L151.587 367.23ZM159.96 375.881C163.948 377.835 167.993 378.389 171.928 377.195L170.186 371.453C167.982 372.122 165.509 371.918 162.6 370.493L159.96 375.881ZM171.97 377.182C176.421 375.759 179.723 372.545 181.954 367.993L176.566 365.353C174.901 368.751 172.735 370.638 170.143 371.467L171.97 377.182ZM181.954 367.993L182.552 366.771L177.164 364.132L176.566 365.353L181.954 367.993ZM182.552 366.771C183.839 364.145 184.528 361.388 184.59 358.526L178.591 358.396C178.549 360.352 178.083 362.256 177.164 364.132L182.552 366.771ZM184.59 358.526C184.651 355.678 184.104 352.877 182.985 350.144L177.432 352.417C178.26 354.439 178.634 356.425 178.591 358.396L184.59 358.526ZM182.968 350.104C182.228 348.368 180.937 346.291 179.231 343.932L174.37 347.45C175.992 349.692 176.973 351.34 177.449 352.457L182.968 350.104ZM179.267 343.983C178.688 343.148 178.245 342.482 177.928 341.978C177.77 341.725 177.652 341.528 177.569 341.38C177.479 341.219 177.456 341.165 177.465 341.186L171.931 343.503C172.297 344.378 173.208 345.773 174.334 347.399L179.267 343.983ZM177.493 341.254C176.792 339.459 176.876 337.99 177.55 336.615L172.162 333.975C170.676 337.007 170.655 340.237 171.903 343.435L177.493 341.254ZM177.55 336.615L179.098 333.454L173.71 330.814L172.162 333.975L177.55 336.615ZM179.098 333.454C179.453 332.73 179.755 332.305 179.966 332.077C180.172 331.855 180.195 331.921 180.009 331.97L178.475 326.17C176.117 326.793 174.658 328.881 173.71 330.814L179.098 333.454ZM180.213 331.908C180.058 331.962 180.025 331.919 180.216 331.952C180.416 331.986 180.766 332.089 181.29 332.345L183.929 326.957C182.3 326.159 180.263 325.55 178.27 326.232L180.213 331.908ZM181.29 332.345C181.779 332.585 182.066 332.792 182.223 332.935C182.371 333.071 182.363 333.113 182.336 333.041L187.93 330.872C187.195 328.977 185.571 327.761 183.929 326.957L181.29 332.345ZM182.33 333.025C182.29 332.922 182.345 332.96 182.295 333.263C182.243 333.576 182.095 334.065 181.756 334.756L187.145 337.396C188.097 335.451 188.781 333.103 187.936 330.887L182.33 333.025ZM181.756 334.756L178.554 341.294L183.942 343.934L187.145 337.396L181.756 334.756ZM179.928 345.308L187.83 349.18L190.47 343.791L182.567 339.92L179.928 345.308ZM191.844 347.805L195.047 341.268L189.659 338.628L186.456 345.166L191.844 347.805ZM195.047 341.268C197.278 336.715 197.793 332.136 196.19 327.747L190.554 329.806C191.487 332.362 191.324 335.23 189.659 338.628L195.047 341.268ZM196.174 327.706C194.706 323.865 191.789 321.008 187.801 319.054L185.161 324.443C188.071 325.868 189.747 327.696 190.57 329.848L196.174 327.706Z" fill="black" mask="url(#path-27-outside-14_1_29)"/>
<mask id="path-29-outside-15_1_29" maskUnits="userSpaceOnUse" x="101.406" y="285.787" width="71.6222" height="71.2014" fill="black">
<rect fill="white" x="101.406" y="285.787" width="71.6222" height="71.2014"/>
<path d="M147.296 304.334L154.331 311.554L161.807 306.502L168.06 312.919L120.137 343.98L113.995 337.678L146.286 290.574L152.539 296.991L147.296 304.334ZM142.054 311.564L130.129 328.099L146.967 316.606L142.054 311.564Z"/>
</mask>
<path d="M147.296 304.334L154.331 311.554L161.807 306.502L168.06 312.919L120.137 343.98L113.995 337.678L146.286 290.574L152.539 296.991L147.296 304.334ZM142.054 311.564L130.129 328.099L146.967 316.606L142.054 311.564Z" fill="#DF80AC"/>
<path d="M147.296 304.334L144.854 302.591L143.397 304.632L145.147 306.428L147.296 304.334ZM154.331 311.554L152.182 313.647L153.932 315.443L156.01 314.039L154.331 311.554ZM161.807 306.502L163.956 304.408L162.205 302.612L160.128 304.016L161.807 306.502ZM168.06 312.919L169.692 315.437L172.763 313.446L170.209 310.826L168.06 312.919ZM120.137 343.98L117.988 346.074L119.705 347.835L121.769 346.498L120.137 343.98ZM113.995 337.678L111.521 335.981L110.13 338.01L111.847 339.771L113.995 337.678ZM146.286 290.574L148.434 288.48L145.88 285.859L143.811 288.878L146.286 290.574ZM152.539 296.991L154.98 298.734L156.438 296.693L154.688 294.897L152.539 296.991ZM142.054 311.564L144.203 309.471L141.71 306.913L139.621 309.81L142.054 311.564ZM130.129 328.099L127.696 326.345L131.821 330.577L130.129 328.099ZM146.967 316.606L148.659 319.084L151.609 317.071L149.116 314.513L146.967 316.606ZM145.147 306.428L152.182 313.647L156.479 309.46L149.444 302.241L145.147 306.428ZM156.01 314.039L163.487 308.988L160.128 304.016L152.651 309.068L156.01 314.039ZM159.658 308.596L165.912 315.013L170.209 310.826L163.956 304.408L159.658 308.596ZM166.429 310.402L118.505 341.463L121.769 346.498L169.692 315.437L166.429 310.402ZM122.285 341.887L116.144 335.584L111.847 339.771L117.988 346.074L122.285 341.887ZM116.47 339.374L148.76 292.27L143.811 288.878L111.521 335.981L116.47 339.374ZM144.137 292.668L150.39 299.085L154.688 294.897L148.434 288.48L144.137 292.668ZM150.097 295.248L144.854 302.591L149.737 306.078L154.98 298.734L150.097 295.248ZM139.621 309.81L127.696 326.345L132.563 329.854L144.487 313.319L139.621 309.81ZM131.821 330.577L148.659 319.084L145.276 314.129L128.438 325.621L131.821 330.577ZM149.116 314.513L144.203 309.471L139.905 313.658L144.819 318.7L149.116 314.513Z" fill="black" mask="url(#path-29-outside-15_1_29)"/>
<mask id="path-31-outside-16_1_29" maskUnits="userSpaceOnUse" x="84.4005" y="270.64" width="61.6306" height="42.8049" fill="black">
<rect fill="white" x="84.4005" y="270.64" width="61.6306" height="42.8049"/>
<path d="M88.4694 301.47L92.6747 309.2L141.867 282.439L137.661 274.709L88.4694 301.47Z"/>
</mask>
<path d="M88.4694 301.47L92.6747 309.2L141.867 282.439L137.661 274.709L88.4694 301.47Z" fill="#DF80AC"/>
<path d="M88.4694 301.47L87.0357 298.835L84.4005 300.269L85.8341 302.904L88.4694 301.47ZM92.6747 309.2L90.0394 310.634L91.4731 313.269L94.1083 311.836L92.6747 309.2ZM141.867 282.439L143.3 285.074L145.935 283.641L144.502 281.006L141.867 282.439ZM137.661 274.709L140.297 273.275L138.863 270.64L136.228 272.074L137.661 274.709ZM85.8341 302.904L90.0394 310.634L95.31 307.767L91.1047 300.037L85.8341 302.904ZM94.1083 311.836L143.3 285.074L140.433 279.804L91.2411 306.565L94.1083 311.836ZM144.502 281.006L140.297 273.275L135.026 276.143L139.231 283.873L144.502 281.006ZM136.228 272.074L87.0357 298.835L89.903 304.106L139.095 277.344L136.228 272.074Z" fill="black" mask="url(#path-31-outside-16_1_29)"/>
<mask id="path-33-outside-17_1_29" maskUnits="userSpaceOnUse" x="68.1111" y="234.57" width="68.1781" height="47.4051" fill="black">
<rect fill="white" x="68.1111" y="234.57" width="68.1781" height="47.4051"/>
<path d="M126.55 239.622L128.62 248.34L107.802 257.97L108.726 261.862L130.598 256.668L132.631 265.23L78.1462 278.169L75.0779 265.248C74.203 261.564 74.578 258.295 76.2028 255.443C77.9737 252.281 81.0385 250.183 85.3973 249.148L91.2349 247.762C95.6456 246.714 99.3524 247.205 102.356 249.232C102.805 249.509 103.241 249.844 103.663 250.237L126.55 239.622ZM87.4305 257.71C85.6143 258.141 84.4095 258.839 83.816 259.802C83.3535 260.624 83.2948 261.762 83.6398 263.215L84.6749 267.574L100.164 263.895L99.129 259.537C98.784 258.084 98.22 257.094 97.4372 256.567C96.5259 255.961 95.1362 255.88 93.2681 256.324L87.4305 257.71Z"/>
</mask>
<path d="M126.55 239.622L128.62 248.34L107.802 257.97L108.726 261.862L130.598 256.668L132.631 265.23L78.1462 278.169L75.0779 265.248C74.203 261.564 74.578 258.295 76.2028 255.443C77.9737 252.281 81.0385 250.183 85.3973 249.148L91.2349 247.762C95.6456 246.714 99.3524 247.205 102.356 249.232C102.805 249.509 103.241 249.844 103.663 250.237L126.55 239.622ZM87.4305 257.71C85.6143 258.141 84.4095 258.839 83.816 259.802C83.3535 260.624 83.2948 261.762 83.6398 263.215L84.6749 267.574L100.164 263.895L99.129 259.537C98.784 258.084 98.22 257.094 97.4372 256.567C96.5259 255.961 95.1362 255.88 93.2681 256.324L87.4305 257.71Z" fill="#DF80AC"/>
<path d="M126.55 239.622L129.469 238.929L128.62 235.355L125.288 236.901L126.55 239.622ZM128.62 248.34L129.88 251.062L132.105 250.033L131.539 247.647L128.62 248.34ZM107.802 257.97L106.542 255.248L104.316 256.277L104.883 258.663L107.802 257.97ZM108.726 261.862L105.807 262.555L106.5 265.474L109.419 264.781L108.726 261.862ZM130.598 256.668L133.517 255.975L132.823 253.056L129.905 253.749L130.598 256.668ZM132.631 265.23L133.324 268.149L136.243 267.456L135.55 264.537L132.631 265.23ZM78.1462 278.169L75.2274 278.862L75.9205 281.781L78.8394 281.088L78.1462 278.169ZM76.2028 255.443L78.8096 256.928L78.8149 256.918L78.8202 256.909L76.2028 255.443ZM102.356 249.232L100.677 251.719L100.729 251.753L100.782 251.786L102.356 249.232ZM103.663 250.237L101.619 252.433L103.095 253.808L104.925 252.959L103.663 250.237ZM83.816 259.802L81.2619 258.228L81.2305 258.279L81.2011 258.331L83.816 259.802ZM84.6749 267.574L81.7561 268.267L82.4492 271.186L85.368 270.492L84.6749 267.574ZM100.164 263.895L100.857 266.814L103.776 266.121L103.083 263.202L100.164 263.895ZM97.4372 256.567L99.1118 254.078L99.1049 254.073L99.098 254.069L97.4372 256.567ZM123.631 240.315L125.701 249.033L131.539 247.647L129.469 238.929L123.631 240.315ZM127.36 245.617L106.542 255.248L109.061 260.693L129.88 251.062L127.36 245.617ZM104.883 258.663L105.807 262.555L111.645 261.169L110.721 257.277L104.883 258.663ZM109.419 264.781L131.291 259.587L129.905 253.749L108.033 258.943L109.419 264.781ZM127.679 257.361L129.712 265.923L135.55 264.537L133.517 255.975L127.679 257.361ZM131.938 262.311L77.4531 275.25L78.8394 281.088L133.324 268.149L131.938 262.311ZM81.0651 277.476L77.9967 264.555L72.1591 265.941L75.2274 278.862L81.0651 277.476ZM77.9967 264.555C77.2685 261.488 77.6185 259.019 78.8096 256.928L73.5961 253.958C71.5375 257.572 71.1375 261.639 72.1591 265.941L77.9967 264.555ZM78.8202 256.909C80.0873 254.647 82.3406 252.957 86.0904 252.067L84.7041 246.229C79.7363 247.409 75.86 249.916 73.5855 253.977L78.8202 256.909ZM86.0904 252.067L91.9281 250.681L90.5418 244.843L84.7041 246.229L86.0904 252.067ZM91.9281 250.681C95.7417 249.775 98.5362 250.273 100.677 251.719L104.034 246.746C100.169 244.136 95.5494 243.654 90.5418 244.843L91.9281 250.681ZM100.782 251.786C101.048 251.951 101.328 252.162 101.619 252.433L105.707 248.041C105.154 247.526 104.562 247.068 103.929 246.678L100.782 251.786ZM104.925 252.959L127.812 242.344L125.288 236.901L102.401 247.516L104.925 252.959ZM86.7373 254.791C84.6249 255.293 82.4743 256.26 81.2619 258.228L86.37 261.376C86.3529 261.403 86.3969 261.31 86.6674 261.153C86.9477 260.991 87.4094 260.798 88.1236 260.629L86.7373 254.791ZM81.2011 258.331C80.2048 260.103 80.2987 262.13 80.721 263.908L86.5586 262.522C86.4328 261.992 86.4102 261.638 86.4211 261.427C86.4315 261.225 86.4687 261.205 86.4309 261.272L81.2011 258.331ZM80.721 263.908L81.7561 268.267L87.5937 266.88L86.5586 262.522L80.721 263.908ZM85.368 270.492L100.857 266.814L99.471 260.976L83.9817 264.655L85.368 270.492ZM103.083 263.202L102.048 258.843L96.2102 260.23L97.2453 264.588L103.083 263.202ZM102.048 258.843C101.626 257.065 100.798 255.213 99.1118 254.078L95.7625 259.056C95.6985 259.013 95.7409 259.014 95.8407 259.19C95.9455 259.374 96.0844 259.7 96.2102 260.23L102.048 258.843ZM99.098 254.069C97.1235 252.756 94.6821 252.905 92.575 253.405L93.9613 259.243C94.7106 259.065 95.2201 259.028 95.5366 259.047C95.8428 259.065 95.8683 259.127 95.7763 259.065L99.098 254.069ZM92.575 253.405L86.7373 254.791L88.1236 260.629L93.9613 259.243L92.575 253.405Z" fill="black" mask="url(#path-33-outside-17_1_29)"/>
<mask id="path-35-outside-18_1_29" maskUnits="userSpaceOnUse" x="66.9711" y="198.175" width="64.478" height="35.5302" fill="black">
<rect fill="white" x="66.9711" y="198.175" width="64.478" height="35.5302"/>
<path d="M79.8165 217.176L93.8378 218.46L94.7426 208.582L103.506 209.384L102.601 219.263L118.056 220.679L119.37 206.339L128.133 207.141L126.017 230.245L70.2505 225.137L72.3667 202.033L81.13 202.836L79.8165 217.176Z"/>
</mask>
<path d="M79.8165 217.176L93.8378 218.46L94.7426 208.582L103.506 209.384L102.601 219.263L118.056 220.679L119.37 206.339L128.133 207.141L126.017 230.245L70.2505 225.137L72.3667 202.033L81.13 202.836L79.8165 217.176Z" fill="#DF80AC"/>
<path d="M79.8165 217.176L76.829 216.902L76.5554 219.89L79.5428 220.164L79.8165 217.176ZM93.8378 218.46L93.5642 221.448L96.5516 221.722L96.8253 218.734L93.8378 218.46ZM94.7426 208.582L95.0163 205.594L92.0288 205.321L91.7552 208.308L94.7426 208.582ZM103.506 209.384L106.493 209.658L106.767 206.671L103.78 206.397L103.506 209.384ZM102.601 219.263L99.6136 218.989L99.34 221.977L102.327 222.251L102.601 219.263ZM118.056 220.679L117.783 223.666L120.77 223.94L121.044 220.952L118.056 220.679ZM119.37 206.339L119.644 203.351L116.656 203.078L116.382 206.065L119.37 206.339ZM128.133 207.141L131.121 207.415L131.394 204.428L128.407 204.154L128.133 207.141ZM126.017 230.245L125.743 233.232L128.731 233.506L129.005 230.518L126.017 230.245ZM70.2505 225.137L67.263 224.863L66.9894 227.851L69.9768 228.124L70.2505 225.137ZM72.3667 202.033L72.6403 199.046L69.6528 198.772L69.3792 201.76L72.3667 202.033ZM81.13 202.836L84.1175 203.11L84.3911 200.122L81.4036 199.849L81.13 202.836ZM79.5428 220.164L93.5642 221.448L94.1114 215.473L80.0901 214.189L79.5428 220.164ZM96.8253 218.734L97.7301 208.855L91.7552 208.308L90.8503 218.187L96.8253 218.734ZM94.469 211.569L103.232 212.372L103.78 206.397L95.0163 205.594L94.469 211.569ZM100.518 209.111L99.6136 218.989L105.589 219.537L106.493 209.658L100.518 209.111ZM102.327 222.251L117.783 223.666L118.33 217.691L102.875 216.276L102.327 222.251ZM121.044 220.952L122.357 206.612L116.382 206.065L115.069 220.405L121.044 220.952ZM119.096 209.326L127.86 210.129L128.407 204.154L119.644 203.351L119.096 209.326ZM125.146 206.868L123.03 229.971L129.005 230.518L131.121 207.415L125.146 206.868ZM126.291 227.257L70.5241 222.149L69.9768 228.124L125.743 233.232L126.291 227.257ZM73.238 225.41L75.3542 202.307L69.3792 201.76L67.263 224.863L73.238 225.41ZM72.093 205.021L80.8563 205.824L81.4036 199.849L72.6403 199.046L72.093 205.021ZM78.1425 202.562L76.829 216.902L82.804 217.45L84.1175 203.11L78.1425 202.562Z" fill="black" mask="url(#path-35-outside-18_1_29)"/>
</svg>
